<?xml version="1.0" encoding="UTF-8" standalone="no"?>
<svg
   viewBox="0 0 257 210"
   fill="#fff"
   fill-rule="evenodd"
   stroke="#000"
   stroke-linecap="round"
   stroke-linejoin="round"
   version="1.1"
   id="svg7"
   sodipodi:docname="ettwitter.svg"
   inkscape:version="1.1.1 (3bf5ae0d25, 2021-09-20)"
   xmlns:inkscape="http://www.inkscape.org/namespaces/inkscape"
   xmlns:sodipodi="http://sodipodi.sourceforge.net/DTD/sodipodi-0.dtd"
   xmlns:xlink="http://www.w3.org/1999/xlink"
   xmlns="http://www.w3.org/2000/svg"
   xmlns:svg="http://www.w3.org/2000/svg">
  <defs
     id="defs11" />
  <sodipodi:namedview
     id="namedview9"
     pagecolor="#ffffff"
     bordercolor="#666666"
     borderopacity="1.0"
     inkscape:pageshadow="2"
     inkscape:pageopacity="0.0"
     inkscape:pagecheckerboard="0"
     showgrid="false"
     inkscape:zoom="1.4802469"
     inkscape:cx="67.556298"
     inkscape:cy="133.42369"
     inkscape:window-width="1271"
     inkscape:window-height="1081"
     inkscape:window-x="260"
     inkscape:window-y="1700"
     inkscape:window-maximized="0"
     inkscape:current-layer="svg7" />
  <use
     xlink:href="#a"
     x=".5"
     y=".5"
     id="use2" />
  <symbol
     id="a"
     overflow="visible">
    <path
       d="M80.507 208.013c96.604 0 149.442-80.036 149.442-149.442 0-2.274 0-4.537-.153-6.8A106.874 106.874 0 00256 24.595a104.84 104.84 0 01-30.167 8.264 52.709 52.709 0 0023.091-29.05 105.26 105.26 0 01-33.352 12.748C199.291-.754 173.422-4.991 152.469 6.223s-31.777 35.088-26.404 58.238A149.117 149.117 0 0117.818 9.583c-13.941 23.999-6.821 54.7 16.26 70.113a52.13 52.13 0 01-23.838-6.574v.665c.007 25.002 17.631 46.537 42.138 51.487a52.44 52.44 0 01-23.716.901c6.881 21.396 26.599 36.053 49.07 36.475a105.39 105.39 0 01-65.229 22.528A106.844 106.844 0 010 184.42a148.695 148.695 0 0080.507 23.552"
       stroke="none"
       fill="#1da1f2"
       fill-rule="nonzero"
       id="path4" />
  </symbol>
  <path
     d="m 181.01252,205.28693 h -51.37384 v -71.02661 h 51.37384 v 13.73785 h -33.15211 v 12.25913 h 30.76707 v 13.73785 h -30.76707 v 17.55392 h 33.15211 z"
     style="font-weight:bold;font-size:97.6914px;line-height:1.25;fill:#000099;stroke-width:2.44228;fill-opacity:1;stroke:#00003e;stroke-opacity:1"
     id="path2634" />
  <path
     d="m 251.94373,147.99817 h -22.18091 v 57.28876 h -18.31714 v -57.28876 h -22.1809 v -13.73785 h 62.67895 z"
     style="font-weight:bold;font-size:97.6914px;line-height:1.25;fill:#000099;stroke-width:2.44228;fill-opacity:1;stroke:#00003e;stroke-opacity:1"
     id="path2636" />
</svg>
